<svg xmlns:xlink="http://www.w3.org/1999/xlink" xmlns="http://www.w3.org/2000/svg" class="MuiSvgIcon-root MuiSvgIcon-fontSizeMedium css-fghyly" focusable="false" aria-hidden="true" viewBox="0 0 557 102" width="557"  height="102" ><path clip-rule="evenodd" d="M487 5.96875H498V77.9688H487V5.96875ZM532.199 79.1946C527.537 79.1946 523.387 78.0951 519.749 75.896C516.111 73.6341 513.24 70.5555 511.137 66.66C509.033 62.7645 507.981 58.3349 507.981 53.3713C507.981 48.3449 509.033 43.9153 511.137 40.0827C513.24 36.1872 516.111 33.1399 519.749 30.9408C523.387 28.7418 527.537 27.6422 532.199 27.6422C536.917 27.6422 541.095 28.7418 544.734 30.9408C548.429 33.1399 551.3 36.1558 553.346 39.9884C555.45 43.8211 556.501 48.282 556.501 53.3713C556.501 58.3349 555.45 62.7645 553.346 66.66C551.3 70.5555 548.429 73.6341 544.734 75.896C541.095 78.0951 536.917 79.1946 532.199 79.1946ZM532.199 69.1103C534.814 69.1103 537.145 68.482 539.191 67.2254C541.238 65.9688 542.829 64.1467 543.966 61.7592C545.16 59.3716 545.757 56.5757 545.757 53.3713C545.757 50.1041 545.16 47.3082 543.966 44.9834C542.829 42.5959 541.238 40.7738 539.191 39.5172C537.145 38.2606 534.842 37.6323 532.284 37.6323C529.669 37.6323 527.338 38.2606 525.292 39.5172C523.302 40.7738 521.71 42.5959 520.516 44.9834C519.323 47.3082 518.726 50.1041 518.726 53.3713C518.726 56.5757 519.323 59.3716 520.516 61.7592C521.71 64.1467 523.302 65.9688 525.292 67.2254C527.338 68.482 529.641 69.1103 532.199 69.1103ZM443.985 75.896C447.934 78.0951 451.141 79.1946 456.386 79.1946C460.512 79.1946 462.776 78.5035 465.959 77.1212C469.2 75.6761 471.881 73.6341 474.003 70.9953L468.08 63.7383C466.43 65.6233 464.544 67.0055 462.423 67.8852L462.279 67.9449C460.255 68.7847 459.243 69.2046 456.652 69.2046C453.587 69.2046 452.265 68.5763 449.908 67.3197C447.55 66.0631 445.724 64.2724 444.427 61.9477C443.61 60.4827 443.051 58.8805 442.748 57.1411H477.008C477.067 56.5757 477.097 55.9788 477.097 55.3505C477.156 54.7222 477.185 54.1567 477.185 53.6541C477.185 48.3763 476.154 43.7897 474.091 39.8942C470.32 32.7714 463.324 27.6422 454.707 27.6422C446.089 27.6422 438.735 32.8424 434.792 40.0827C432.729 43.9153 431.698 48.3449 431.698 53.3713C431.698 58.3349 432.759 62.7645 434.88 66.66C437.061 70.5555 440.096 73.6341 443.985 75.896ZM442.65 49.3187C442.891 47.431 443.396 45.7346 444.162 44.2295C446.18 40.3573 449.877 37.0668 454.707 37.0668C459.537 37.0668 463.168 40.4118 465.163 44.1352C465.997 45.6903 466.521 47.4181 466.735 49.3187H442.65ZM377.012 28.3737H388.67L403.984 65.4994L418.127 28.3737H429.501L408.55 77.9827H397.863L377.012 28.3737ZM337.42 75.896C341.058 78.0951 345.208 79.1946 349.87 79.1946C354.588 79.1946 358.767 78.0951 362.405 75.896C366.1 73.6341 368.971 70.5555 371.017 66.66C373.121 62.7645 374.172 58.3349 374.172 53.3713C374.172 48.282 373.121 43.8211 371.017 39.9884C368.971 36.1558 366.1 33.1399 362.405 30.9408C358.767 28.7418 354.588 27.6422 349.87 27.6422C345.208 27.6422 341.058 28.7418 337.42 30.9408C333.782 33.1399 330.911 36.1872 328.808 40.0827C326.704 43.9153 325.652 48.3449 325.652 53.3713C325.652 58.3349 326.704 62.7645 328.808 66.66C330.911 70.5555 333.782 73.6341 337.42 75.896ZM356.862 67.2254C354.816 68.482 352.485 69.1103 349.87 69.1103C347.312 69.1103 345.009 68.482 342.963 67.2254C340.973 65.9688 339.381 64.1467 338.187 61.7592C336.994 59.3716 336.397 56.5757 336.397 53.3713C336.397 50.1041 336.994 47.3082 338.187 44.9834C339.381 42.5959 340.973 40.7738 342.963 39.5172C345.009 38.2606 347.34 37.6323 349.955 37.6323C352.513 37.6323 354.816 38.2606 356.862 39.5172C358.909 40.7738 360.5 42.5959 361.637 44.9834C362.831 47.3082 363.428 50.1041 363.428 53.3713C363.428 56.5757 362.831 59.3716 361.637 61.7592C360.5 64.1467 358.909 65.9688 356.862 67.2254ZM297.319 79.1946C292.074 79.1946 288.866 78.0951 284.918 75.896C281.028 73.6341 277.993 70.5555 275.813 66.66C273.691 62.7645 272.63 58.3349 272.63 53.3713C272.63 48.3449 273.662 43.9153 275.724 40.0827C279.668 32.8424 287.022 27.6422 295.639 27.6422C304.257 27.6422 311.253 32.7714 315.024 39.8942C317.087 43.7897 318.118 48.3763 318.118 53.6541C318.118 54.1567 318.088 54.7222 318.029 55.3505C318.029 55.9788 318 56.5757 317.941 57.1411H283.681C283.983 58.8805 284.543 60.4827 285.36 61.9477C286.656 64.2724 288.483 66.0631 290.84 67.3197C293.198 68.5763 294.52 69.2046 297.584 69.2046C300.175 69.2046 301.187 68.7847 303.211 67.9449L303.355 67.8852C305.477 67.0055 307.363 65.6233 309.013 63.7383L314.936 70.9953C312.814 73.6341 310.133 75.6761 306.891 77.1212C303.709 78.5035 301.444 79.1946 297.319 79.1946ZM285.095 44.2295C284.328 45.7346 283.824 47.431 283.582 49.3188H307.668C307.453 47.4181 306.929 45.6903 306.096 44.1352C304.1 40.4118 300.469 37.0668 295.639 37.0668C290.809 37.0668 287.112 40.3573 285.095 44.2295ZM251.529 76.7504C251.933 76.5559 252.322 76.3579 252.696 76.1561V78.879C252.696 80.5901 252.38 82.1676 251.75 83.6158L251.748 83.6206C251.138 85.0845 249.91 86.2986 248.012 87.2474L248.008 87.2495C246.197 88.1862 243.405 88.6733 239.588 88.6733C237.596 88.6733 235.637 88.4804 233.71 88.095L233.701 88.0935C231.827 87.7704 230.118 87.3833 228.573 86.9326C227.019 86.4792 225.728 86.0595 224.699 85.6737L224.238 85.5006V95.5963L224.471 95.6742C226.243 96.2649 228.467 96.8203 231.137 97.3415C233.829 97.932 236.875 98.2257 240.271 98.2257C244.518 98.2257 248.13 97.7359 251.099 96.7462C254.06 95.7592 256.448 94.3713 258.248 92.5726C260.101 90.7846 261.43 88.7273 262.228 86.4025C263.088 84.1523 263.516 81.7083 263.516 79.0739V40.2843C263.516 37.2881 262.615 34.8273 260.791 32.9346C258.99 31.0018 256.631 29.5773 253.726 28.6532C250.829 27.7312 247.609 27.2726 244.072 27.2726C240.732 27.2726 237.488 27.6655 234.342 28.4517C231.241 29.178 228.434 30.5319 225.927 32.5116L225.923 32.5144C223.466 34.5071 221.518 37.2875 220.072 40.8376L220.07 40.8427C218.685 44.4047 218 48.9665 218 54.5137C218 59.7456 218.817 64.2141 220.466 67.9077L220.468 67.9123C222.185 71.609 224.699 74.4567 228.009 76.4432L228.016 76.4471C231.391 78.366 235.479 79.3501 240.266 79.4156H240.271C242.184 79.4156 244.097 79.1519 246.008 78.6255C247.975 78.1659 249.814 77.542 251.524 76.7528L251.529 76.7504ZM234.434 38.9973C236.497 37.4348 239.467 36.6301 243.389 36.6301C245.057 36.6301 246.624 36.7904 248.092 37.1096C249.54 37.4244 250.645 37.9847 251.432 38.7716L251.441 38.7809L251.451 38.7895C252.258 39.4809 252.696 40.6015 252.696 42.2335V67.6713C251.147 68.5797 249.447 69.2816 247.595 69.7759C245.671 70.2244 243.782 70.448 241.927 70.448C237.53 70.448 234.333 68.9563 232.266 66.0127C230.173 63.0324 229.112 59.1115 229.112 54.2213C229.112 50.9342 229.499 47.945 230.268 45.2512C231.029 42.5871 232.419 40.5088 234.433 38.9983L234.434 38.9973Z" fill="#005A44" fill-rule="evenodd"></path><circle cx="32.6386" cy="68.8828" fill="#3DD693" r="32.6386"></circle><circle cx="139.275" cy="68.8828" fill="#6FA5FF" r="32.6386"></circle><path clip-rule="evenodd" d="M70.5032 18.2057C71.7777 12.9914 70.653 8.42728 67.476 4.58812C63.3346 -0.416329 56.4497 -0.803329 50.6333 0.9458C47.8123 1.60952 45.9373 3.48455 46.8358 6.26641C47.8591 9.43444 50.9242 8.30901 52.2501 7.8222C52.4157 7.76139 52.5542 7.71054 52.6582 7.67927C53.4856 7.43043 54.6081 7.16129 55.8294 7.05029C58.3609 6.82022 60.5945 7.30131 62.0589 9.07092C63.8526 11.2384 64.4765 13.6064 63.5853 16.875C62.6983 20.1285 60.2837 24.3021 55.6513 29.6744C51.4658 27.9514 46.8807 27.0012 42.0736 27.0012C22.3608 27.0012 6.38037 42.9816 6.38037 62.6944C6.38037 82.4073 22.3608 98.3877 42.0736 98.3877C61.7865 98.3877 77.7669 82.4073 77.7669 62.6944C77.7669 50.4343 71.5856 39.6179 62.1695 33.1917C73.1525 22.6903 91.0546 14.3531 110.438 12.5357C114.123 12.1902 116.64 12.5074 118.229 13.0591C119.778 13.5971 120.233 14.2643 120.377 14.6103C120.534 14.9861 120.63 15.7146 120.099 16.9095C119.564 18.111 118.472 19.5665 116.699 21.0272C108.028 28.1679 102.01 35.2536 99.5603 47.0452C98.4421 52.4265 99.0126 57.2238 100.967 61.2607C102.911 65.2751 106.101 68.2877 109.82 70.3404C111.172 71.0867 112.605 71.7133 114.094 72.2205C118.262 87.3085 132.088 98.3877 148.502 98.3877C168.215 98.3877 184.196 82.4073 184.196 62.6944C184.196 42.9816 168.215 27.0012 148.502 27.0012C128.789 27.0012 112.809 42.9816 112.809 62.6944C112.809 63.1197 112.816 63.5432 112.831 63.9649C110.354 62.5148 108.445 60.5712 107.296 58.1966C106.098 55.7224 105.602 52.5305 106.445 48.4757C108.447 38.8413 113.173 33.0396 121.169 26.4549C123.562 24.4843 125.441 22.1992 126.523 19.7666C127.608 17.3274 127.964 14.5283 126.865 11.8988C125.753 9.23953 123.435 7.42364 120.535 6.41669C117.674 5.4234 114.063 5.13363 109.782 5.535C95.4237 6.88123 81.6774 11.5577 70.5032 18.2057ZM122.06 73.7738C126.445 74.0511 130.925 73.4429 134.985 71.9557C140.443 69.9565 144.795 68.1874 148.015 66.8038L146.552 72.6578C146.081 74.5415 147.226 76.4503 149.11 76.9212C150.994 77.3921 152.902 76.2469 153.373 74.3632L156.611 61.4139C156.986 59.9127 156.336 58.3427 155.009 57.5466L144.218 51.0719C142.553 50.0729 140.393 50.6128 139.394 52.2778C138.395 53.9427 138.935 56.1023 140.6 57.1012L145.684 60.1518C142.542 61.5115 138.16 63.3048 132.567 65.3533C128.627 66.7963 124.188 67.1495 120.089 66.4856C119.925 65.2452 119.84 63.9797 119.84 62.6944C119.84 46.8649 132.673 34.0325 148.502 34.0325C164.332 34.0325 177.164 46.8649 177.164 62.6944C177.164 78.524 164.332 91.3563 148.502 91.3563C136.6 91.3563 126.393 84.1021 122.06 73.7738ZM50.8265 35.3936C46.1565 41.5218 43.2524 47.5582 41.4681 52.356C40.2561 55.6151 39.1731 59.0521 38.7304 62.5183C38.4854 64.4766 39.8401 66.2041 41.7861 66.4454C44.0727 66.7288 45.4685 65.3604 45.789 62.874C45.9389 61.7113 46.5938 58.7453 48.0585 54.8069C49.7669 50.2133 52.632 44.334 57.3646 38.4476C65.3995 43.5254 70.7356 52.4868 70.7356 62.6944C70.7356 78.524 57.9032 91.3563 42.0736 91.3563C26.2441 91.3563 13.4117 78.524 13.4117 62.6944C13.4117 46.8649 26.2441 34.0325 42.0736 34.0325C45.1262 34.0325 48.0673 34.5097 50.8265 35.3936Z" fill="#005A44" fill-rule="evenodd"></path></svg>